# xmcd
# 
# Track frame offsets:
#     187
#     131972
#     147247
#     161450
#     173815
#     188710
# 
# Disc length: 2637
# 
# Revision: 0
# Processed by: cddbd v1.5.2PL0 Copyright (c) Steve Scherf et al.
# Submitted via: fre:ac v1.0.17
# 
DISCID=500a4b06
DTITLE=東京混声合唱団 - 日本の合唱名曲選⑥
DYEAR=1970
DGENRE=合唱
TTITLE0=合唱組曲「山に祈る」
TTITLE1=月光とピエロ／月夜
TTITLE2=月光とピエロ／秋のピエロ
TTITLE3=月光とピエロ／ピエロ
TTITLE4=月光とピエロ／ピエロの嘆き
TTITLE5=月光とピエロ／月光とピエロとピエレットの唐草模様
EXTD=
EXTT0=
EXTT1=
EXTT2=
EXTT3=
EXTT4=
EXTT5=
PLAYORDER=
